<?xml version="1.0" encoding="UTF-8" standalone="no"?>
<svg
   xmlns:dc="http://purl.org/dc/elements/1.1/"
   xmlns:cc="http://creativecommons.org/ns#"
   xmlns:rdf="http://www.w3.org/1999/02/22-rdf-syntax-ns#"
   xmlns:svg="http://www.w3.org/2000/svg"
   xmlns="http://www.w3.org/2000/svg"
   xmlns:sodipodi="http://sodipodi.sourceforge.net/DTD/sodipodi-0.dtd"
   xmlns:inkscape="http://www.inkscape.org/namespaces/inkscape"
   width="136.81067"
   height="136.81067"
   viewBox="0 0 36.197824 36.197825"
   version="1.1"
   id="svg8"
   inkscape:version="1.0 (4035a4fb49, 2020-05-01)"
   sodipodi:docname="case.svg">
  <defs
     id="defs2" />
  <sodipodi:namedview
     units="px"
     id="base"
     pagecolor="#ffffff"
     bordercolor="#666666"
     borderopacity="1.0"
     inkscape:pageopacity="0.0"
     inkscape:pageshadow="2"
     inkscape:zoom="3.959798"
     inkscape:cx="105.50137"
     inkscape:cy="41.49598"
     inkscape:document-units="mm"
     inkscape:current-layer="layer1"
     inkscape:document-rotation="0"
     showgrid="false"
     inkscape:window-width="1496"
     inkscape:window-height="1561"
     inkscape:window-x="1384"
     inkscape:window-y="27"
     inkscape:window-maximized="0" />
  <metadata
     id="metadata5">
    <rdf:RDF>
      <cc:Work
         rdf:about="">
        <dc:format>image/svg+xml</dc:format>
        <dc:type
           rdf:resource="http://purl.org/dc/dcmitype/StillImage" />
        <dc:title />
      </cc:Work>
    </rdf:RDF>
  </metadata>
  <g
     inkscape:label="Layer 1"
     inkscape:groupmode="layer"
     id="layer1"
     transform="translate(-85.539151,-128.99623)">
    <path
       id="rect853"
       style="opacity:1;fill:#cccccc;fill-opacity:0;stroke:#cccccc;stroke-width:1.78099;stroke-linecap:butt;stroke-linejoin:bevel;stroke-miterlimit:4;stroke-dasharray:none;stroke-opacity:1;paint-order:normal"
       d="m 96.299204,138.97879 c -5.467668,0 -9.869558,3.99901 -9.869558,8.96666 v 1.07238 c 0,4.96765 4.40189,8.96714 9.869558,8.96714 h 14.678206 c 5.46766,0 9.86907,-3.99949 9.86907,-8.96714 v -1.07238 c 0,-4.96765 -4.40141,-8.96666 -9.86907,-8.96666 z" />
    <path
       class=""
       id="svg_1"
       d="m 113.31604,149.05212 h -0.0223 l -0.94787,-3.29718 h -1.52906 v 4.15671 h 1.0129 l -0.057,-3.41109 h 0.0223 l 1.01781,3.41109 h 1.4671 v -4.15692 h -1.01965 z m -19.45323,-3.29739 -0.762791,4.20068 h 1.113103 l 0.564016,-3.81294 h 0.02352 l 0.549087,3.81314 h 1.10656 l -0.759316,-4.20088 z m 6.22626,4.2e-4 -0.508799,3.2117 h -0.02311 l -0.506347,-3.2117 h -1.680391 l -0.09121,4.20026 h 1.03028 l 0.02577,-3.77736 h 0.02332 l 0.688148,3.77736 h 1.045009 l 0.68835,-3.77613 0.0229,-8.2e-4 0.0268,3.77736 h 1.0307 l -0.091,-4.20027 z m -9.541642,1.08018 c -0.01943,-0.0859 -0.01473,-0.17178 -0.0043,-0.21923 0.02965,-0.13497 0.118816,-0.28283 0.376692,-0.28283 0.241721,0 0.382419,0.15256 0.382419,0.38037 v 0.25952 h 1.028847 v -0.29326 c 0,-0.91637 -0.806145,-1.05932 -1.389793,-1.05932 -0.732321,0 -1.330284,0.24807 -1.44051,0.93335 -0.03006,0.18405 -0.03374,0.35277 0.01002,0.56545 0.178939,0.8585 1.642558,1.10717 1.855036,1.65012 0.03988,0.10123 0.027,0.23253 0.0073,0.31187 -0.03334,0.13742 -0.125973,0.28037 -0.401028,0.28037 -0.257264,0 -0.41432,-0.15031 -0.41432,-0.37955 l -6.15e-4,-0.40758 h -1.104718 l -6.13e-4,0.32475 c 0,0.93703 0.723118,1.21863 1.497566,1.21863 0.746432,0 1.358301,-0.25727 1.45728,-0.9585 0.05031,-0.36361 0.01329,-0.60206 -0.0045,-0.69102 -0.174439,-0.87996 -1.737242,-1.14009 -1.85483,-1.63314 z m 13.405102,0.01 c -0.0202,-0.0838 -0.0145,-0.16892 -0.005,-0.21534 0.0288,-0.13415 0.11719,-0.28037 0.37281,-0.28037 0.23886,0 0.37915,0.1503 0.37915,0.37505 v 0.25767 h 1.0178 v -0.29059 c 0,-0.90513 -0.79879,-1.04766 -1.37486,-1.04766 -0.72598,0 -1.31883,0.24254 -1.42661,0.92353 -0.0301,0.18323 -0.0348,0.35072 0.009,0.56033 0.1773,0.8495 1.6264,1.09633 1.83724,1.63336 0.0385,0.10122 0.0268,0.23026 0.008,0.309 -0.0335,0.13845 -0.12617,0.2771 -0.39734,0.2771 -0.25603,0 -0.41023,-0.14806 -0.41023,-0.37485 l -8.1e-4,-0.40451 h -1.0949 v 0.32189 c 0,0.92742 0.71678,1.20574 1.48366,1.20574 0.73723,0 1.34398,-0.25501 1.44112,-0.94889 0.0499,-0.3589 0.0131,-0.5953 -0.004,-0.68385 -0.1728,-0.87056 -1.72067,-1.12926 -1.83519,-1.61761 z m 4.67265,2.01618 c 8.1e-4,0.0534 -8.1e-4,0.11514 -0.01,0.16013 -0.0205,0.10449 -0.10859,0.30225 -0.3951,0.30225 -0.28548,0 -0.37465,-0.19776 -0.3951,-0.30225 -0.009,-0.045 -0.0108,-0.10675 -0.0104,-0.16013 v -3.10699 h -1.04132 v 3.01068 c -0.002,0.0779 0.006,0.23558 0.01,0.2775 0.0707,0.78303 0.67936,1.03601 1.43703,1.03601 0.75686,0 1.36525,-0.25298 1.43827,-1.03601 0.003,-0.0419 0.0116,-0.1998 0.0104,-0.2775 v -3.01068 h -1.04398 v 3.10699 z m 8.19848,-1.2675 v 0.61514 h 0.42189 v 0.60921 c 0.002,0.0529 -8.3e-4,0.11146 -0.01,0.15952 -0.0184,0.11308 -0.12352,0.30388 -0.42066,0.30388 -0.29796,0 -0.40266,-0.191 -0.42189,-0.30388 -0.008,-0.0481 -0.0104,-0.10655 -0.009,-0.15952 v -1.9219 c 0,-0.0683 0.004,-0.14295 0.0168,-0.19714 0.0219,-0.10348 0.11063,-0.30492 0.41023,-0.30492 0.31513,0 0.39305,0.21268 0.41187,0.30492 0.0121,0.0583 0.0129,0.15869 0.0129,0.15828 v 0.23661 h 1.03846 v -0.14029 c -4.4e-4,0 0.003,-0.14356 -0.008,-0.27465 -0.0763,-0.78998 -0.71658,-1.03866 -1.44624,-1.03866 -0.73007,0 -1.35524,0.25072 -1.44583,1.03866 -0.009,0.0679 -0.018,0.20001 -0.018,0.27465 l -4.3e-4,1.76731 c 4.3e-4,0.0792 0.002,0.13762 0.0143,0.2775 0.0679,0.76484 0.71984,1.03887 1.4491,1.03887 0.72966,0 1.38162,-0.27403 1.44992,-1.03887 0.0112,-0.14008 0.0129,-0.19857 0.0131,-0.2775 v -1.12722 z"
       fill="#1428a0"
       style="fill:#cccccc;fill-opacity:1;stroke-width:0.218436" />
  </g>
</svg>
