<?xml version="1.0" encoding="UTF-8" standalone="no"?>
<svg
   xmlns:dc="http://purl.org/dc/elements/1.1/"
   xmlns:cc="http://creativecommons.org/ns#"
   xmlns:rdf="http://www.w3.org/1999/02/22-rdf-syntax-ns#"
   xmlns:svg="http://www.w3.org/2000/svg"
   xmlns="http://www.w3.org/2000/svg"
   xmlns:sodipodi="http://sodipodi.sourceforge.net/DTD/sodipodi-0.dtd"
   xmlns:inkscape="http://www.inkscape.org/namespaces/inkscape"
   sodipodi:docname="left.svg"
   inkscape:version="1.0 (4035a4fb49, 2020-05-01)"
   id="svg8"
   version="1.1"
   viewBox="0 0 39.6875 39.6875"
   height="39.6875mm"
   width="39.6875mm">
  <defs
     id="defs2" />
  <sodipodi:namedview
     inkscape:window-maximized="0"
     inkscape:window-y="27"
     inkscape:window-x="1440"
     inkscape:window-height="1561"
     inkscape:window-width="1440"
     showgrid="false"
     inkscape:document-rotation="0"
     inkscape:current-layer="layer1"
     inkscape:document-units="mm"
     inkscape:cy="29.523261"
     inkscape:cx="111.90726"
     inkscape:zoom="2.8"
     inkscape:pageshadow="2"
     inkscape:pageopacity="0.0"
     borderopacity="1.0"
     bordercolor="#666666"
     pagecolor="#ffffff"
     id="base" />
  <metadata
     id="metadata5">
    <rdf:RDF>
      <cc:Work
         rdf:about="">
        <dc:format>image/svg+xml</dc:format>
        <dc:type
           rdf:resource="http://purl.org/dc/dcmitype/StillImage" />
        <dc:title></dc:title>
      </cc:Work>
    </rdf:RDF>
  </metadata>
  <g
     transform="translate(-83.830063,-110.85541)"
     id="layer1"
     inkscape:groupmode="layer"
     inkscape:label="Layer 1">
    <path
       sodipodi:nodetypes="sssscccsssccscsssssssscssssssscsccsssssssscscccssscccscscccsssscscccsccs"
       id="path849"
       d="m 91.765555,148.93557 c -2.96856,-1.06214 -4.67819,-2.86524 -5.5491,-5.85251 -1.00003,-3.43013 0.62798,-7.28059 3.78244,-9.18628 1.22708,-0.74131 1.00359,-0.14247 1.15434,-2.05096 0.22216,-2.81258 1.2694,-6.17207 3.18903,-8.41785 0.57083,-0.66781 2.26004,-2.04613 3.75381,-3.06291 2.750195,-1.87204 4.842075,-3.8406 5.571425,-5.24299 1.17163,-2.25282 3.01395,-2.70918 6.37805,-1.57989 2.37147,0.79607 4.45305,2.08157 5.8191,3.59362 3.37248,3.73293 4.73046,8.38462 4.57381,14.1504 -0.13814,5.08427 -2.15232,9.27518 -5.67392,12.77786 -3.80387,3.78341 -6.16806,4.95354 -9.98527,4.94207 -1.97965,-0.006 -2.62586,-0.12008 -3.83167,-0.67678 l -1.450425,-0.66964 -1.45999,0.74949 c -1.95649,1.00437 -4.36963,1.2069 -6.27163,0.52637 z m 5.49019,-0.88091 c 0.7182,-0.30896 1.30582,-0.66615 1.30582,-0.79375 0,-0.1276 -0.70078,-0.232 -1.55728,-0.232 -3.31211,0 -5.82881,-2.29914 -6.06316,-5.539 -0.0807,-1.11551 0.0261,-1.84374 0.39477,-2.6915 0.47705,-1.09702 0.48239,-1.26152 0.0952,-2.93292 -0.38025,-1.64154 -0.50429,-1.68559 -0.50429,-1.68559 -1.21098,0.39425 -3.03231,2.44114 -3.63909,3.72088 -0.76359,1.61048 -0.83867,3.93064 -0.1889,5.8376 0.56994,1.67268 2.6946,3.84271 4.32617,4.41857 1.75235,0.61848 4.25744,0.57453 5.83075,-0.10229 z m 11.291315,-0.28141 c 2.8262,-1.05153 5.93367,-4.08021 7.64928,-7.45532 4.28171,-8.42339 1.21011,-17.54087 -6.74718,-20.02774 -2.22621,-0.69576 -6.41806,-0.77373 -8.53038,-0.15868 -5.741875,1.67188 -9.092465,6.26859 -9.095095,12.47761 -10e-4,3.06197 0.64813,5.57505 2.1319,8.24979 2.14778,3.87177 6.327255,7.1182 9.765355,7.58529 1.26974,0.1725 3.32843,-0.11371 4.82612,-0.67095 z m -5.40181,-5.87479 c -1.64636,-0.53403 -2.81208,-1.3408 -4.317655,-2.98814 -2.47322,-2.70609 -3.57337,-5.70553 -3.38801,-9.23706 0.097,-1.84848 0.2372,-2.38815 0.89787,-3.45676 1.54592,-2.50049 4.934135,-3.70951 9.632445,-3.43718 3.3849,0.1962 5.11134,0.78889 6.65276,2.2839 1.95946,1.90046 2.54448,4.71967 1.67337,8.06407 -1.53995,5.91228 -6.91937,10.14371 -11.15078,8.77117 z m 4.85601,-0.84085 c 1.71392,-0.83006 3.99867,-3.26061 5.05826,-5.38102 1.67716,-3.3563 1.72457,-7.38672 0.11383,-9.67851 -1.9644,-2.79501 -8.62873,-3.90796 -13.231235,-2.20963 -1.82792,0.6745 -3.50711,2.29702 -3.96747,3.83359 -1.39733,4.66387 1.48104,11.09124 6.026505,13.45714 2.06981,1.07733 3.7435,1.07132 6.00011,-0.0216 z m -12.181445,3.56063 c -0.80478,-0.88931 -1.84725,-2.6509 -2.57857,-3.76076 l -1.13881,-1.72825 c -0.34559,0.0882 -0.65206,2.21944 -0.0602,4.00557 0.59226,1.78737 2.61637,3.06955 4.35872,3.09 l 0.8821,0.0104 z m 23.557215,-10.77766 c 0.81492,-3.92608 0.1287,-9.25574 -1.64257,-12.75728 -0.96407,-1.90584 -2.87728,-4.06892 -4.64005,-5.24605 -2.56238,-1.71109 -6.06342,-2.59074 -7.42054,-1.86443 -0.2892,0.15478 -0.94898,0.94292 -1.46618,1.75142 -0.51719,0.8085 -1.46907,1.97661 -2.11529,2.5958 l -1.44912,1.23279 1.41134,-0.32686 c 3.15208,-0.6094 7.77052,0.0784 10.23862,1.52481 4.68843,2.7476 7.1574,8.1406 6.36761,13.90886 -0.15704,1.147 -0.63431,3.43621 -0.70095,3.68126 -0.0666,0.24506 0.40526,-0.98268 0.63173,-1.46953 0.38033,-1.16899 0.5542,-1.91693 0.7854,-3.03079 z"
       style="fill:#cccccc;fill-opacity:1;stroke:#cccccc;stroke-width:0.5;stroke-miterlimit:4;stroke-dasharray:none;stroke-opacity:1" />
    <text
       id="text853"
       y="135.92937"
       x="101.2523"
       style="font-style:normal;font-weight:normal;font-size:10.5833px;line-height:1.25;font-family:sans-serif;fill:#cccccc;fill-opacity:1;stroke:none;stroke-width:0.264583"
       xml:space="preserve"><tspan
         style="font-style:normal;font-variant:normal;font-weight:bold;font-stretch:normal;font-size:12.7px;font-family:sans-serif;-inkscape-font-specification:'sans-serif Bold';fill:#cccccc;fill-opacity:1;stroke-width:0.264583"
         y="135.92937"
         x="101.2523"
         id="tspan851"
         sodipodi:role="line">L</tspan></text>
  </g>
</svg>
